# xmcd
#
# Track frame offsets:
#	150
#	13182
#	25331
#	40583
#	58815
#	74512
#	88663
#	104489
#	118910
#	133515
#	156368
#	169878
#	184253
#	198166
#	211709
#	222771
#	243797
#	256444
#	268263
#	284853
#
# Disc length: 3942
#
# Revision: 2
# Processed by: cddbd v1.5.1PL0 Copyright (c) Steve Scherf et al.
# Submitted via: audiograbber 1.82.02
# Normalized: r1:DSETVAR1
#
DISCID=350f6414
DTITLE=Various Artist - Blues and Soul The Soul Years 70-71 Vol 2
DYEAR=1900
DGENRE=
TTITLE0=Freda Payne - Band Of Gold
TTITLE1=The Chairmen Of The Board - Give Me Just A Little More Time
TTITLE2=The Delfonics - Didn't I Blow Your Mind This Time
TTITLE3=The Temptations - Ball Of Confusion
TTITLE4=Edwin Starr - War
TTITLE5=The Detroit Spinners - It's A Shame
TTITLE6=Diana Ross - Ain't No Mountain High Enough
TTITLE7=Clarence Carter - Patches
TTITLE8=The Four Tops - Still Water (Love)
TTITLE9=James Brown - (Get Up I Fell Like Being A) Sex Machine
TTITLE10=Aretha Franklin - Don't Play That Song
TTITLE11=The Supremes - Up The Ladder To The Roof
TTITLE12=Smokey Robinson and The Miracles - Tears Of A Clown
TTITLE13=The Jackson Five - I Want You Back
TTITLE14=Wilson Pickett - Engine No 9
TTITLE15=Sly and The Family Stone - Thank You (Falletinme Be Mice Elf Again)
TTITLE16=Curtis Mayfield - Move On Up
TTITLE17=Otis Leaville - I Love You
TTITLE18=Diana Ross - I'm Still Waiting
TTITLE19=The Tams - Hey Girl Don't Bother Me
EXTD=
EXTT0=
EXTT1=
EXTT2=
EXTT3=
EXTT4=
EXTT5=
EXTT6=
EXTT7=
EXTT8=
EXTT9=
EXTT10=
EXTT11=
EXTT12=
EXTT13=
EXTT14=
EXTT15=
EXTT16=
EXTT17=
EXTT18=
EXTT19=
PLAYORDER=
